<?xml version="1.0" encoding="UTF-8"?>
<svg id="Layer_1" data-name="Layer 1" xmlns="http://www.w3.org/2000/svg" viewBox="0 0 150.36 146.38">
  <defs>
    <style>
      .cls-1 {
        fill: red;
      }
    </style>
  </defs>
  <g id="DDAaBI.tif">
    <g>
      <path class="cls-1" d="M130.04,23.13c10.53,10.75,17.18,24.76,19.49,39.66,5.74,36.9-19.06,72.15-55.36,81.27-41.26,10.37-84.71-15.19-92.61-57.31-.56-2.96-1.55-8.25-1.55-9.25v-12c0-2,.21-5.34,1-9C6.75,29.87,29.97,9.27,56.1,2.44s54.87,1.23,73.94,20.7ZM80.7,8.53c.11-.67-.35-2.56.42-2.81,1.08-.17,2.27.02,3.19.62.61.4,1.93,2.29,2.33.24.72-3.63-2.49-2.57-4.79-2.7-1.31-.08-5.55-.79-6.36.11-.51.57.74,1.08.95,1.93.25,1.02.01,4.94-.21,6.04-.26,1.31-1.85,1.79-1.38,3.06,3.55.49,7.19,1.14,10.76.89.77-.79,2.04-3.22.7-3.83-.89-.41-1.62,1.13-2.27,1.48-.99.53-2.78.56-3.57-.27-.54-2.43.82-4.08,1.8-1.16,1.97.63,2.19-4.08,1.4-4.89-1.5-.95-1.04,1.96-2.98,1.3ZM69.82,9.05c.91-.06,1.36-1.68,1.29-2.44-.18-1.81-2.64-2.79-4.25-2.75-.82.02-7.09,1.03-7.54,1.29-.21.12-.66.61-.61.88.27.69,1.51,1.11,1.74,1.65.27.65.82,4.56.84,5.39.04,1.41-.77,1.92-.74,3.18.6,1.05,5.18.37,5.91-.33.89-.86-.36-1.44-.64-1.97-.26-.49-.74-2.35-.01-2.57,1.28-.39,1.82,3.61,3.3,4.2,1.14.46,4.72.25,4.87-1.24.08-.86-.72-.86-1.17-1.42-.86-1.08-.94-3.02-2.98-3.36v-.51ZM100.83,7.54c-1.84-.19-8.77-2.88-10.04-2.26s.29,1.51.27,2.57c-.03,1.13-1.69,5.57-2.38,6.45-.92,1.18-2.84,1.43.16,2.51,2.52.9,5.41,1.37,7.9,2.48,1.43.66,3.52-3.13,2.56-3.75-.88-.56-1.98.93-2.81,1.14-1.05.27-2.06-.2-2.99-.65-.33-.49-.16-2.41.4-2.73,1.5-.87.88,1.34,1.94,1.94,1.21-.47,2.85-4.72,1.53-5.15-1.15-.38-1.24,1.13-1.78,1.19l-1.07-.43.66-2.49c.54-.37,2.63.56,3.12,1.06.84.85.61,2.16,2.47,1.17.58-.57.49-2.34.07-3.06ZM53.25,9.56c1.16-.05,2.11,1.64,3.25.79,1.38-1.02.05-3.03-1.04-3.66-1.45-.84-3.37.67-4.82,1.17s-3.01,1.07-4.59,1.37c-1.28.5-1.59,4.28-.41,4.68,2.15.74,1.8-2.12,2.55-2.29.91-.2,1.19,2.33,1.44,2.9.12.26.46.25.57.53.34.85.88,2.24.65,3.11-.12.44-.67.67-.6,1.26.22,1.95,6.6-.53,7.11-2.01.12-.7-1.5-1.25-1.9-1.67-.58-.59-2.52-5.87-2.22-6.19ZM118.67,17.93c-.19-.23-.67-.38-.97-.71-1.18-1.34-1.67-2.32-3.61-2.87-8.66-2.44-12.04,9.09-3.63,11.91,2.08.7,4.88,1.3,4.69-1.79-.35-.45-2.96.13-4.13-1.88-2.07-3.53,2.67-7.89,4.12-4.12.38.99.05,2.47.64,3.24,1.46,1.93,4.68-1.67,2.88-3.79ZM37.68,17.81c.76-1.6-1.33-3.12-2.83-2.44-.91,1.08-6.97,4.98-7.2,5.75-.07.23-.08.47-.02.7.95.63,2.29.87,3.2,1.73.37.35,2.91,3.79,3.06,4.19.4,1.09-.26,3.32,1.75,2.38.76-.35,2.77-2.21,3.64-2.83s3.82-2.05,4.08-2.92c.3-1.01-.56-3.82-1.89-3.72-1.05.08-.52,1.86-.71,2.68-.21.94-2.01,1.98-2.93,2.25-1.92-.77-2.53-3.69.27-2.06l.85-.69c.05-1.05-2.19-4.2-3.13-3.95-1.37.37.47,3.1-1.31,2.77-.53-.1-1.31-1.45-1.68-1.89,1.32-1.79,2.65-2.16,4.83-1.97ZM129.74,59.43c-8.23-27.73-33.12-44.35-62.14-40.57-31.9,4.16-54.9,34.39-47.74,66.38.05.23.51.2.59.5,7.43,27.15,30.6,44.15,59.09,42.41,33.69-2.06,59.94-35.87,50.19-68.72ZM119.87,34.86c.96.46,4.1,4.79,5.25,3.19-.34-2.6,1.41-5.19,2.19-7.63.54-1.7,1.76-4.67-.01-5.96s-3.01.68-4.56,1.39c-1.02.47-4.65,1.69-5.68,1.82-.53.07-2.52-.22-2.67.05-.77,1.33,2.57,4.5,3.62,3.75.57-.41-.19-1.49.64-1.45,1.05.05,2.37,1.65,2.97,2.47-.37.69-1.4.2-1.77.42-.32.19-.39,1.64.04,1.96ZM26.33,38.56c1.64.35,1.81-.99,2.71-1.82,1-.93,4.93-3.98,4.76-5.23-.09-.7-1.16-2.65-1.91-2.79-2.35-.41-.96,1.31-.91,2.22.06,1.1-.89,2.4-2.07,2.07-.34-.1-4.98-4.05-5.18-4.41-.35-.62-.13-1.6-.48-1.85-1.14-.81-4.5,2.87-4.82,4.03-.61,2.15,1.42.82,2.4,1.23.35.15,4.58,3.66,4.9,4.05.67.8.69,1.48.61,2.5ZM134.81,44.78c3.19.88,4.83-.39,4.37-3.74-.2-1.45-1.37-2.63-2.09-3.86s-1.22-3.78-3.08-3.43c-.33,1.8-2.17,2.76-3.69,3.56-1.7.9-3.39,1.74-5.32,1.28-1.05.68,1.59,6.49,3.34,5.54.49-.26.49-1.28,1.49-1.88,1.68-1.02,2.54-.3,1.36,1.29-.33.44-1.23.77-1.66,1.26-2.52,2.81,1.5,6.44,2.66,5.64.14-.1.32-1.45.58-1.88.37-.63,1.12-.7,1.47-1.38s.3-1.67.58-2.4ZM13.73,37.61c-4.74,4.34-1.56,12.31,5.16,11.24,4.62-.74,7.1-6.75,4.33-10.42-2.1-2.79-6.95-3.15-9.49-.82ZM139.75,54.12c1.92-.59,3.62-1.08,3.62,1.66,0,1.08-.76,1.65-.81,2.35-.11,1.87,3.54,1.04,3.26-1.2-1.25-2.43-1.53-5.63-2.61-8.01-.19-.41-.37-.81-.82-1-.77-.29-1,1.22-1.8,1.74-.98.64-5.53,1.93-6.71,1.87-.89-.05-1.36-.52-2.19-.54-.48.35.42,3.51.59,4.2.4,1.56,1.05,4.24,1.6,5.65.8,2.05,5.99.96,4.29-.66-.5-.48-1.88-.32-2.56-1.32-1.16-1.69-1.28-3.46,1.16-3.72s.1,1.8.1,2.2c-.01,1.78,6.09.41,5.18-1.67l-2.28-.56v-.98ZM14.6,56.34c-1.15.95-4.76,1.08-5.64-.02-.54-.68-.27-2.22.32-2.84,1.09-1.17,3.74-.57,3.62-2.62-.1-1.72-3.15-2.13-4.31-1.44-.27.16-2.07,3.25-2.24,3.72-2.25,6.17,4.53,11.52,9.76,7.43,2.71-2.12,4.02-8.83-.22-9.6-.72,1.77.63,3.78-1.28,5.37ZM145.94,75.45c.2-1.28,0-3.5,0-4.92,0-.13-.33-.47-.26-.73-.31-.49-2.13.99-2.79,1.3-2.15,1.01-10.89,3.25-8.8,6.89.59,1.02,2.91,1.11,4.16,1.54,1.5.52,4.65,1.99,5.75,3.06.32.31.41,1.46,1.27,1.25,1.05-.26.81-4.8.26-4.91-.62-.24-1.4.93-1.79.29-.26-.44-.15-3.43.14-3.63l1.65.53c.15-.04.41-.6.42-.66ZM16.15,80.94c.86-.96.91-2.98.87-4.2-.04-1.32-.1-4-.29-5.15-.49-2.94-2.1-.4-3.02-.2-1.29.29-4.87.49-6.14.3-1.44-.22-2.73-2.47-3.01.65-.08.85-.14,3.77.39,4.29,1.06,1.05,3.66-2.08,4.55-.13,0,1.2-3.65,1.53-4.42,2.64-.72,1.05-.71,3.68.28,4.59,1.07.99,1.43-.42,2.22-.86,1.27-.7,2.89-.8,3.85-2.36.78,1.31,3.79,1.45,4.71.43ZM16.41,83.9c-.42.12-.98,1.34-2.34,1.82-2.37.84-4.52,1.2-6.9.59-1.95-.5-.77,4.84.15,5.83,1.42,1.54,1.76-.56,2.64-.96,1.02-.46,5.63-1.5,6.66-1.34.67.11,1.25.79,1.97.39.81-.59-.17-6.93-2.17-6.33ZM136.8,87.15c2.18-1.94-1.67-4.17-3.41-2.25-.22,1.53-1.47,3.15-1.66,4.55-1.22,8.8,9.8,10.32,12.16,3.36.55-1.63.78-3.55-.07-5.13-.38-.71-1.22-1.25-1.75-1.87-.33-.39-.44-1.31-1.04-1.56-2.27-.94-3.88,6.15-2.08,6.5,1.67.32,1.19-1.18,1.96-1.19,1.02-.02,1.05,1.24.39,1.96-2.22,2.43-9.32.47-6.62-3,.66-.85,1.58-.87,2.13-1.36ZM22.59,102.15c.26-.39.54-.79.56-1.28-.86-3.85-.82-6.2-4.86-7.81s-6.54.26-8.05,3.81c-.08.19-.44.2-.49.39-.48,2.1.53,4.24,1.81,5.89,1.01,1.31,2.17,2.43,3.95,1.89,1.93-.58-.83-2.41-1.26-3.3-2.19-4.52,6.51-7.88,5.21-2.33-.28,1.21-2.09,2.32-.69,3.5,1.01.85,3.1.28,3.8-.77ZM25.72,103.89c-.66-.57-1.59-1.03-2.48-.85-.06,1.25-.67,1.94-1.6,2.67-.46.37-3.54,2.49-3.87,2.6-.8.27-1.59.11-2.41.13-1.29,1.49,1.64,5.18,3.12,5.41,1.15.18.92-1.07,1.37-1.64.21-.26,2.02-1.6,2.29-1.41.11.8,1.56,1.46,1.2,2.3-.54,1.28-2.65,1.31-3.78,1.42-.52.69-.25,1.51.18,2.15.19.28,1.42,1.79,1.64,2.01.46.46,1.96,1.35,2.47.65.24-.33.11-1.03.46-1.49.4-.52,5.17-3.84,5.76-3.94s1.94.27,2.17-.44c.41-1.28-2.62-5.08-4.2-4.98l-.46.33c-.13,1.88-2.07,3.75-3.1,1.34-1.12-2.63,2.96-1.65,3.14-2.39.27-1.13-1.1-3.17-1.91-3.88ZM139.83,108.11c-.45-.78-.86-1.61-1.52-2.24-3.52-3.38-6.61.85-4,2.45,1.56.96,2.45-.3,3.18-.08l1.39,1.5c.8-.08,1.61-.47,1.37-1.35-.06-.2-.36-.2-.41-.28ZM124.16,107.72c-.43-.21-.71-.3-1.18-.11-.71.29-3.51,3.67-3.65,4.41-.41,2.17,1.15,1.07,2.16,1.09.57,0,4.74,2.94,5.3,3.5.76.76.89,1.69,1.04,2.72.28.03.58.05.84-.04.12-.04,1.64-1.5,1.87-1.75,1.36-1.44,2.36-3.34,3.87-4.68.82-1.8-1.63-5.28-3.19-3.2-.08.44.62,1.08.69,1.57.14.98-1.02,2.66-2.09,2.36-.33-.09-5.2-3.89-5.38-4.22-.34-.62-.22-1.02-.28-1.66ZM35.91,121.93c-.55-3.03,2.01-4.96-1.05-7.1-3.67-2.57-2.36.29-3.03,1.86-.16.37-4.22,4.79-4.58,5-1,.57-2.35-.35-1.5,1.47.34.73,2.13,2.19,2.94,2.01,1.33-.29.29-1.36.6-1.95.15-.28,1.84-1.53,2.09-2.06.42.32.36.34.28.78-.2,1.06-1.37,3.8-.8,4.66.63.96,3.93-1.98,5.06-1.56.31,1.61-2.95,2.42-3.07,2.62-.67,1.07,2.96,4.26,4.23,4.12,1.03-.09.79-1.63,1.05-2.33.31-.83,3.12-4.06,3.87-4.68,1.37-1.13,4.06-1,1.18-3.5-2.53-2.19-4.67.4-7.26.66ZM116.43,115.97c-1.62-.88-5.78,3.29-5.43,4.5.19.66,1.4.32,1.92.42.79.15,4.9,4.74,5.04,5.57.16.96-.47,1.83.88,1.88,1.3-1.24,6.58-4.46,7.04-5.89.36-1.11-.23-3.15-1.43-3.53-2.02-.63-1.04,1.19-1.04,2.1,0,1.14-1.15,2.36-2.33,1.8-.61-.29-4.05-4.04-4.37-4.69-.37-.75-.33-1.35-.29-2.17ZM115.54,130.63c.24-.35.73-1.04.52-1.46-.57-.68-1.41-.46-2.1-1.03-.44-.37-3.26-4.88-3.37-5.44-.16-.77.73-2.63-1.26-2.34-1.01.15-5.31,2.94-4.7,4.14.81.74,1.52.43,2.33,1.31.32.35,3.22,4.68,3.33,4.96.29.74.12,1.49.21,2.24.61,1.01,4.52-1.63,5.04-2.39ZM106.66,133.24c-.29-.32-2.57-5.85-2.63-6.33-.08-.58,1.25-1.89-.22-2.34-.83-.25-4.88,1.05-5.27,1.68-1.31,2.15,4.35,3.19.78,4.6-2.76,1.09-2.16-1.5-1.79-3.32-1.15-1.4-5.64.91-5.93,2.09-.28,1.11.7,1.03,1.13,1.36.67.53,2.86,6.03,2.72,6.85-.08.45-.63.81-.5,1.28.49,1.74,5.69-.48,6.34-1.66.08-1.73-2.53-1.26-2.46-3.5.05-.7,2.44-1.55,2.84-1.29,1.36.87.34,3.22.54,3.85.47,1.51,4.92-.39,5.43-1.23.99-1.63-.41-1.42-.97-2.04ZM48.03,124.84c-4.23.17-6.88,4.44-5.41,8.36,2.14,5.72,12.22,5.45,12.71-1.04.34-4.58-2.85-7.5-7.3-7.33ZM70.23,134.25c.49-.96,1.72-1.8,1.81-2.2.34-1.47-5.27-2.83-5.24-.67,0,.45,1.79,2.65.04,3.25-.92,0-3.59-4.61-4.55-5.3-.89-.64-4.92-1.24-4.92.24,0,.46.89.95,1.03,1.83.31,1.89-.44,6.51-2.28,7.54-.66,1.92,3.41,2.59,4.71,1.92.92-.83-.15-1.53-.3-2.29-.17-.86.28-1.68.45-2.5.02-.26.49-.2.64-.13.51.22,3.5,4.47,4.29,5.29.89.92,2.08,2.06,2.73.13s.7-4.85,1.17-6.81c.04-.19.35-.21.39-.29ZM73.22,142.6c1.33.69,2.68.07,3.97.02,1.95-.07,3.59.17,5.52-.43,5.94-1.86,4.9-11.67-1.67-11.97-1.42-.07-5.14.32-6.67.53-.63.09-1.92.48-1.68,1.36.14.52.97.51,1.16,1.19.23.81.48,6.25.31,7.09-.18.9-1.43.9-.94,2.22Z"/>
      <path class="cls-1" d="M82.31,40.31c.61.6,4.81-.1,6.22.13,2.3.36,3.78,1.62,5.36,2.15.63.21,1.23.03,1.92.41,1.35.73.18,1.24-.04,1.97-.16.52.06,1.12-.19,1.63-.18.37-.88.44-.92.65-.27,1.42,1.97.78,2.28.32.26-.39.37-1.69.98-2.51,2.17-2.89,3.53.99,5.3,1.65,1.5.56,3.19.82,4.71,1.24,2.3.63,1.41,3.09,1.74,4.41.09.38,1.09.28.66.96-.39.63-1.72.49-1.43,2.18.22,1.27,3.63,2.73,4.83,2.89.25.03,1.6-.39,1.26.36-.2.43-1.18.75-.42,1.71.43.54,2.59.85,3.4,1.25.33.16,2.49,1.7,2.54,1.87.38,1.12-1.97,2.05-2.57,2.8-.44.55-.4,1.77-1.02,2.08-1.75.87-4.06-1.78-5.92-.61-.46,2.07,1.51,3.03,3.12,3.67.66.26,1.34.02,1.92.67s.22,1.24.41,1.92c.17.6,2.65,1.88,3.32,2.12.78.28,4.65.74,4.65,1.29l-1.1.45-.46.59.27.79,1.04.63c-.92.07-3.42-.32-3.88.65-.2.43.29.43.52.51,1.8.61,4.61.09,4.4,2.98-.92-.02-1.12-1.36-2.17-1.02-.48.16-.75,3.52-.56,4.15.25.83.99.43,1.45.87.78.75-.34,5.17-1.32,5.95-1.75,1.41-4-.89-5.56-.87-.6,0-.99.66-1.79.76-1.22.16-3.04-.47-3.87-.24-.14.04-.53.33-.29.49l.91,1.16c-1.53.68-1.38-.54-1.9-1.08-1.38-1.44-1.95-.41-3.39-.6-.55-.07-5.03-2.75-4.56-.39.02.08,1.31.66.79,1.17-.66.65-3.61-1.97-4.39-2.21-2.42-.74-2.5,1.3-4.85,1.41-1.92.09-4.12-1.65-4.1,1.58-.59,0-2.04-1.43-2.97-1.69s-1.99-.21-3.06-.56c-.7-.23-2.03-1.53-2.14-.2-.09,1.04,3.46,3.83,4.57,3.99.67.1,2.92-.53,2.7.4-3.71,3.13-5.06-1.74-7.87-2.99-1.83-.81-3.76,2.04-4.6,3.46-3.78,6.4,3.01,4.88,6.91,5.36s8.12,2.26,11.78,3.88c.15.21-.69.66-.96.72-1.8.39-5.16-.02-7.2.05-9.6.3-19.11.23-28.72,0-1.38-.03-8.66.23-9.2-.12-.26-.16-.3-.36-.26-.65.45,0,.91.04,1.36-.06,4.13-.97,8.4-2.7,12.6-3.45,1.37-.24,7.19-.51,7.78-1.02.52-.45.23-2.92-.02-3.55-.04-.09-1.06-1.44-1.13-1.51-1.04-.96-1.43.15-.94-2.3-2.33-1.41-3.61,2.91-5.29,3.6-.68.28-.15-.8-.53-1.07-1.44.07-3-1.25-4.18-.8-.68.26-1.77,1.52-2.32,1.58-.56.02-.75-.7-1.13-.88-1.24-.57-5.19,3.18-7.37,1.44-.67-.54-.71-1.29-1.33-1.79-.67-.22-2.74,1.3-3.81.99-1.2-.35.78-1.42.35-2.05l-2.32-.53.24-1.44c-.84-2.38-7.2-.88-7.71-2.61-.18-.61.23-1.91-.47-2.14-.74-.24-2.2,1.17-3.2.76-.25-1.29,1.38-.93,1.04-2.17-.08-.3-.63.01-.52-.42,1.29-.4,5-.12,4.15-2.21-1.76-.1-3.66-.91-5.33-1.14-.94-.13-5.94-.15-6.21-.52-.22-.36-.15-.69.02-1.05.43-.92,5.76-4.4,6.91-4.75.9-.27,3.91-.15,2.94-1.74-.37-.61-1.64-.16-1.43-1.03,1.14-.25,2.56-.18,3.36-1.17,0-1.25-7.11-1.45-8.28-1.17.44-.89,2.23-1.59,1.32-2.74-.74-.94-1.99-.37-2.71-.44-.48-.05-1.18-.58-1.88-.69-.55-.09-1.85.63-1.36-.88.05-.14,2.12-1.48,2.47-1.68.91-.52,3.51-1.09,3.08-2.38-.41-.54-2.12.39-.51-1.78,1.43-1.94,2.98-2.25,4.85-3.18.57-.29.87-.92,1.38-1.2.62-.34,1.56-.29,2.05-.79.65-.66.41-2.42,1.67-2.99.9-.41,1.77.52,2.34-.24,1.23-1.62-1.96-2.76-.8-3.91.59-.59,1.71-.24,2.41-.44.31-.09,2.66-1.01,2.78-1.1.62-.51-.2-1.71.64-1.68,1,.83-.16,1.99-.9,2.46l3.23,1.43c.8-.17-.31-2.51-.38-3.24-.12-1.33-.18-3.33,1.31-3.87.64-.23,1.27-.07,1.9-.43.94-.53,2.18-2.59,3.55-3.18,1.46-.64,4.23-.8,5.98-1.27,2.38-.63,4.66-1.78,6.82-2.5,3.04-1.02,4.35.69,6.75.95.98.1,1.85-.87,3.01-.65s1.78,1.45,2.52,1.66c.53.15.94-.17,1.37-.1.84.14,2.62.85,3.16,1.51.22.27.26.77.45.96Z"/>
      <path class="cls-1" d="M65.87,6.53c2.1,2.04-2.31,4.66-.96-.33.13-.09.8.17.96.33Z"/>
      <path class="cls-1" d="M136.1,39.34c.45,1.83-1.8,2.47-2.84,1.16,0-.41,2.57-1.45,2.84-1.16Z"/>
      <path class="cls-1" d="M14.68,75.58c.5,2.36-3.11,2.32-2.59,0h2.59Z"/>
      <path class="cls-1" d="M78.81,132.58c3.11-.85,3.9,5.38,2.63,7.31-.51.78-2.53,1.04-2.79.25l-.53-6.71c0-.38.33-.75.68-.85Z"/>
      <path class="cls-1" d="M14.74,40.95c.92-.92,6.01.13,6.54,1.23,1.57,3.25-5.92,2.3-6.73.51-.22-.48-.17-1.38.19-1.75Z"/>
      <path class="cls-1" d="M50.07,133.5c-.04.05-1.01.82-1.08.86-3.39,1.95-2.2-9.51,1.14-6.34.98.93.69,4.48-.06,5.48Z"/>
      <path class="cls-1" d="M123.67,27.95c.03.44.02.88-.12,1.3-.47,1.47-1.85.04-1.95-.41-.15-.68,1.6-.97,2.07-.9Z"/>
      <path class="cls-1" d="M141.28,76.36c.35,2.26-1,2.19-2.32.9.53-.72,1.49-.83,2.32-.9Z"/>
    </g>
  </g>
</svg>